<svg width="1276" height="683" xmlns="http://www.w3.org/2000/svg"><g><path d="M-77.55688239587471,-94.85641329316422L-120.30333386734128,203.0359052796848L-87.6319764368236,84.85723674064502Z" fill="#ffffbb" stroke="#ffffbb"></path><path d="M-77.55688239587471,-94.85641329316422L-87.6319764368236,84.85723674064502L84.47495819302276,30.631695934571326Z" fill="#ffffc5" stroke="#ffffc5"></path><path d="M-77.55688239587471,-94.85641329316422L84.47495819302276,30.631695934571326L59.655510261654854,-116.95616947486997Z" fill="#fffdd5" stroke="#fffdd5"></path><path d="M59.655510261654854,-116.95616947486997L84.47495819302276,30.631695934571326L199.445224464871,-106.94470204412937Z" fill="#fff3c6" stroke="#fff3c6"></path><path d="M59.655510261654854,-116.95616947486997L199.445224464871,-106.94470204412937L476.18089774623513,-117.84607430454344Z" fill="#ffe6b4" stroke="#ffe6b4"></path><path d="M59.655510261654854,-116.95616947486997L476.18089774623513,-117.84607430454344L711.1220115865581,-123.26485299505293Z" fill="#ffd4a4" stroke="#ffd4a4"></path><path d="M199.445224464871,-106.94470204412937L84.47495819302276,30.631695934571326L237.58527317782864,113.7540242774412Z" fill="#ffeda2" stroke="#ffeda2"></path><path d="M199.445224464871,-106.94470204412937L237.58527317782864,113.7540242774412L292.5402763322927,87.76573088020086Z" fill="#ffe693" stroke="#ffe693"></path><path d="M199.445224464871,-106.94470204412937L292.5402763322927,87.76573088020086L328.98605621187016,-32.810323087032884Z" fill="#ffe2a1" stroke="#ffe2a1"></path><path d="M199.445224464871,-106.94470204412937L328.98605621187016,-32.810323087032884L476.18089774623513,-117.84607430454344Z" fill="#ffdca9" stroke="#ffdca9"></path><path d="M328.98605621187016,-32.810323087032884L292.5402763322927,87.76573088020086L364.6379039576277,155.37097572814673Z" fill="#ffdd7b" stroke="#ffdd7b"></path><path d="M328.98605621187016,-32.810323087032884L364.6379039576277,155.37097572814673L515.5609268415719,100.91105445753783Z" fill="#ffd574" stroke="#ffd574"></path><path d="M328.98605621187016,-32.810323087032884L515.5609268415719,100.91105445753783L476.18089774623513,-117.84607430454344Z" fill="#ffd193" stroke="#ffd193"></path><path d="M476.18089774623513,-117.84607430454344L515.5609268415719,100.91105445753783L612.3762861243449,-41.86101648956537Z" fill="#fec790" stroke="#fec790"></path><path d="M476.18089774623513,-117.84607430454344L612.3762861243449,-41.86101648956537L711.1220115865581,-123.26485299505293Z" fill="#febd9b" stroke="#febd9b"></path><path d="M612.3762861243449,-41.86101648956537L515.5609268415719,100.91105445753783L651.0339953983203,105.90502894250676Z" fill="#febe72" stroke="#febe72"></path><path d="M612.3762861243449,-41.86101648956537L651.0339953983203,105.90502894250676L734.8782326304354,40.23809720296413Z" fill="#feb276" stroke="#feb276"></path><path d="M612.3762861243449,-41.86101648956537L734.8782326304354,40.23809720296413L711.1220115865581,-123.26485299505293Z" fill="#feae90" stroke="#feae90"></path><path d="M711.1220115865581,-123.26485299505293L734.8782326304354,40.23809720296413L875.0380502222106,-40.24384428514168Z" fill="#fba08d" stroke="#fba08d"></path><path d="M711.1220115865581,-123.26485299505293L875.0380502222106,-40.24384428514168L1042.0988468430005,-105.30015712371096Z" fill="#f4928f" stroke="#f4928f"></path><path d="M711.1220115865581,-123.26485299505293L1042.0988468430005,-105.30015712371096L1196.9377690553665,-114.45403574267402Z" fill="#e78890" stroke="#e78890"></path><path d="M711.1220115865581,-123.26485299505293L1196.9377690553665,-114.45403574267402L1414.548011389561,-119.99549061991274Z" fill="#d68093" stroke="#d68093"></path><path d="M875.0380502222106,-40.24384428514168L734.8782326304354,40.23809720296413L922.4070907360874,71.98231840040535Z" fill="#f69672" stroke="#f69672"></path><path d="M875.0380502222106,-40.24384428514168L922.4070907360874,71.98231840040535L1042.0988468430005,-105.30015712371096Z" fill="#ec8a82" stroke="#ec8a82"></path><path d="M1042.0988468430005,-105.30015712371096L922.4070907360874,71.98231840040535L1088.4951394493692,54.33750381227583Z" fill="#e38579" stroke="#e38579"></path><path d="M1042.0988468430005,-105.30015712371096L1088.4951394493692,54.33750381227583L1196.9377690553665,-114.45403574267402Z" fill="#d68092" stroke="#d68092"></path><path d="M1196.9377690553665,-114.45403574267402L1088.4951394493692,54.33750381227583L1278.9664084254764,7.413616941776127Z" fill="#cb8086" stroke="#cb8086"></path><path d="M1196.9377690553665,-114.45403574267402L1278.9664084254764,7.413616941776127L1373.4938908391632,-61.49256340228021Z" fill="#be8097" stroke="#be8097"></path><path d="M1196.9377690553665,-114.45403574267402L1373.4938908391632,-61.49256340228021L1414.548011389561,-119.99549061991274Z" fill="#b88099" stroke="#b88099"></path><path d="M1373.4938908391632,-61.49256340228021L1278.9664084254764,7.413616941776127L1482.5807374180295,62.57474944693968Z" fill="#b18084" stroke="#b18084"></path><path d="M1373.4938908391632,-61.49256340228021L1482.5807374180295,62.57474944693968L1414.548011389561,-119.99549061991274Z" fill="#ab8095" stroke="#ab8095"></path><path d="M-87.6319764368236,84.85723674064502L-120.30333386734128,203.0359052796848L76.58550734166056,222.6146232848987Z" fill="#ffef94" stroke="#ffef94"></path><path d="M-87.6319764368236,84.85723674064502L76.58550734166056,222.6146232848987L84.47495819302276,30.631695934571326Z" fill="#fff998" stroke="#fff998"></path><path d="M84.47495819302276,30.631695934571326L76.58550734166056,222.6146232848987L175.27343744179234,152.01130125671625Z" fill="#ffeb83" stroke="#ffeb83"></path><path d="M84.47495819302276,30.631695934571326L175.27343744179234,152.01130125671625L237.58527317782864,113.7540242774412Z" fill="#ffed84" stroke="#ffed84"></path><path d="M237.58527317782864,113.7540242774412L175.27343744179234,152.01130125671625L201.10028533730656,327.2852078429423Z" fill="#ffd466" stroke="#ffd466"></path><path d="M237.58527317782864,113.7540242774412L201.10028533730656,327.2852078429423L364.6379039576277,155.37097572814673Z" fill="#ffcd5e" stroke="#ffcd5e"></path><path d="M237.58527317782864,113.7540242774412L364.6379039576277,155.37097572814673L292.5402763322927,87.76573088020086Z" fill="#ffdb6f" stroke="#ffdb6f"></path><path d="M515.5609268415719,100.91105445753783L364.6379039576277,155.37097572814673L510.31840808922425,246.36860487051308Z" fill="#febf56" stroke="#febf56"></path><path d="M515.5609268415719,100.91105445753783L510.31840808922425,246.36860487051308L589.7705920645967,239.6594465128146Z" fill="#feb24c" stroke="#feb24c"></path><path d="M515.5609268415719,100.91105445753783L589.7705920645967,239.6594465128146L651.0339953983203,105.90502894250676Z" fill="#feb455" stroke="#feb455"></path><path d="M651.0339953983203,105.90502894250676L589.7705920645967,239.6594465128146L772.4045464862138,172.30245281243697Z" fill="#fea04b" stroke="#fea04b"></path><path d="M651.0339953983203,105.90502894250676L772.4045464862138,172.30245281243697L734.8782326304354,40.23809720296413Z" fill="#fea65a" stroke="#fea65a"></path><path d="M734.8782326304354,40.23809720296413L772.4045464862138,172.30245281243697L922.4070907360874,71.98231840040535Z" fill="#f89b5a" stroke="#f89b5a"></path><path d="M922.4070907360874,71.98231840040535L772.4045464862138,172.30245281243697L902.1617605094798,190.70558787090704Z" fill="#f4894a" stroke="#f4894a"></path><path d="M922.4070907360874,71.98231840040535L902.1617605094798,190.70558787090704L1042.022899754811,210.84621261572465Z" fill="#eb7c46" stroke="#eb7c46"></path><path d="M922.4070907360874,71.98231840040535L1042.022899754811,210.84621261572465L1088.4951394493692,54.33750381227583Z" fill="#e38254" stroke="#e38254"></path><path d="M1088.4951394493692,54.33750381227583L1042.022899754811,210.84621261572465L1126.1717894929461,86.85298974858597Z" fill="#d97c55" stroke="#d97c55"></path><path d="M1088.4951394493692,54.33750381227583L1126.1717894929461,86.85298974858597L1278.9664084254764,7.413616941776127Z" fill="#cf806d" stroke="#cf806d"></path><path d="M1126.1717894929461,86.85298974858597L1042.022899754811,210.84621261572465L1138.8002496375702,186.55855985358357Z" fill="#d77249" stroke="#d77249"></path><path d="M1126.1717894929461,86.85298974858597L1138.8002496375702,186.55855985358357L1312.822264735587,153.32957308972254Z" fill="#cb7651" stroke="#cb7651"></path><path d="M1126.1717894929461,86.85298974858597L1312.822264735587,153.32957308972254L1278.9664084254764,7.413616941776127Z" fill="#c48063" stroke="#c48063"></path><path d="M1278.9664084254764,7.413616941776127L1312.822264735587,153.32957308972254L1482.5807374180295,62.57474944693968Z" fill="#b4806a" stroke="#b4806a"></path><path d="M1482.5807374180295,62.57474944693968L1312.822264735587,153.32957308972254L1475.970455778297,172.637482478749Z" fill="#ab795a" stroke="#ab795a"></path><path d="M1482.5807374180295,62.57474944693968L1475.970455778297,172.637482478749L1478.1341865705326,293.3786008344032Z" fill="#a36e50" stroke="#a36e50"></path><path d="M-120.30333386734128,203.0359052796848L-133.3918976271525,305.16483896411955L76.58550734166056,222.6146232848987Z" fill="#ffdf8b" stroke="#ffdf8b"></path><path d="M76.58550734166056,222.6146232848987L-133.3918976271525,305.16483896411955L61.65238061686978,385.5156778404489Z" fill="#ffcf7b" stroke="#ffcf7b"></path><path d="M76.58550734166056,222.6146232848987L61.65238061686978,385.5156778404489L201.10028533730656,327.2852078429423Z" fill="#ffc068" stroke="#ffc068"></path><path d="M76.58550734166056,222.6146232848987L201.10028533730656,327.2852078429423L175.27343744179234,152.01130125671625Z" fill="#ffd169" stroke="#ffd169"></path><path d="M364.6379039576277,155.37097572814673L201.10028533730656,327.2852078429423L314.99622019473463,391.50807780912146Z" fill="#ffb552" stroke="#ffb552"></path><path d="M364.6379039576277,155.37097572814673L314.99622019473463,391.50807780912146L510.31840808922425,246.36860487051308Z" fill="#ffb04b" stroke="#ffb04b"></path><path d="M510.31840808922425,246.36860487051308L314.99622019473463,391.50807780912146L517.7947633829899,290.13142781797796Z" fill="#ff9e44" stroke="#ff9e44"></path><path d="M510.31840808922425,246.36860487051308L517.7947633829899,290.13142781797796L589.7705920645967,239.6594465128146Z" fill="#fea346" stroke="#fea346"></path><path d="M589.7705920645967,239.6594465128146L517.7947633829899,290.13142781797796L630.9709888324142,384.6275199879892Z" fill="#fe913f" stroke="#fe913f"></path><path d="M589.7705920645967,239.6594465128146L630.9709888324142,384.6275199879892L708.9392617135309,326.06321199564263Z" fill="#fe813a" stroke="#fe813a"></path><path d="M589.7705920645967,239.6594465128146L708.9392617135309,326.06321199564263L772.4045464862138,172.30245281243697Z" fill="#fe8c3f" stroke="#fe8c3f"></path><path d="M772.4045464862138,172.30245281243697L708.9392617135309,326.06321199564263L862.2381542203948,353.75639339210466Z" fill="#fa7638" stroke="#fa7638"></path><path d="M772.4045464862138,172.30245281243697L862.2381542203948,353.75639339210466L902.1617605094798,190.70558787090704Z" fill="#f67739" stroke="#f67739"></path><path d="M902.1617605094798,190.70558787090704L862.2381542203948,353.75639339210466L1042.022899754811,210.84621261572465Z" fill="#ee6936" stroke="#ee6936"></path><path d="M1042.022899754811,210.84621261572465L862.2381542203948,353.75639339210466L1040.56814490119,385.84083516849205Z" fill="#e85331" stroke="#e85331"></path><path d="M1042.022899754811,210.84621261572465L1040.56814490119,385.84083516849205L1190.8993459143676,302.4764270731248Z" fill="#d95236" stroke="#d95236"></path><path d="M1042.022899754811,210.84621261572465L1190.8993459143676,302.4764270731248L1138.8002496375702,186.55855985358357Z" fill="#d4623e" stroke="#d4623e"></path><path d="M1138.8002496375702,186.55855985358357L1190.8993459143676,302.4764270731248L1312.822264735587,153.32957308972254Z" fill="#c86642" stroke="#c86642"></path><path d="M1312.822264735587,153.32957308972254L1190.8993459143676,302.4764270731248L1295.9097738470882,349.41092849941924Z" fill="#c15a3e" stroke="#c15a3e"></path><path d="M1312.822264735587,153.32957308972254L1295.9097738470882,349.41092849941924L1478.1341865705326,293.3786008344032Z" fill="#b35a41" stroke="#b35a41"></path><path d="M1312.822264735587,153.32957308972254L1478.1341865705326,293.3786008344032L1475.970455778297,172.637482478749Z" fill="#ab6848" stroke="#ab6848"></path><path d="M-133.3918976271525,305.16483896411955L-127.69316106801853,669.034067359753L-47.52486982382834,447.56427061278373Z" fill="#ff957d" stroke="#ff957d"></path><path d="M-133.3918976271525,305.16483896411955L-47.52486982382834,447.56427061278373L61.65238061686978,385.5156778404489Z" fill="#ffb27a" stroke="#ffb27a"></path><path d="M61.65238061686978,385.5156778404489L-47.52486982382834,447.56427061278373L54.58619762444869,432.85887645790353Z" fill="#ffa26c" stroke="#ffa26c"></path><path d="M61.65238061686978,385.5156778404489L54.58619762444869,432.85887645790353L208.68765952065587,472.66896984772757Z" fill="#ff975d" stroke="#ff975d"></path><path d="M61.65238061686978,385.5156778404489L208.68765952065587,472.66896984772757L201.10028533730656,327.2852078429423Z" fill="#ff9c58" stroke="#ff9c58"></path><path d="M201.10028533730656,327.2852078429423L208.68765952065587,472.66896984772757L314.99622019473463,391.50807780912146Z" fill="#ff934d" stroke="#ff934d"></path><path d="M314.99622019473463,391.50807780912146L208.68765952065587,472.66896984772757L368.47276125103235,459.0817489591427Z" fill="#ff8043" stroke="#ff8043"></path><path d="M314.99622019473463,391.50807780912146L368.47276125103235,459.0817489591427L517.7947633829899,290.13142781797796Z" fill="#ff883f" stroke="#ff883f"></path><path d="M517.7947633829899,290.13142781797796L368.47276125103235,459.0817489591427L505.29083169065416,493.7907343218103Z" fill="#fe7739" stroke="#fe7739"></path><path d="M517.7947633829899,290.13142781797796L505.29083169065416,493.7907343218103L630.9709888324142,384.6275199879892Z" fill="#fe7537" stroke="#fe7537"></path><path d="M630.9709888324142,384.6275199879892L505.29083169065416,493.7907343218103L622.2316171624698,450.43937454232946Z" fill="#fe5f31" stroke="#fe5f31"></path><path d="M630.9709888324142,384.6275199879892L622.2316171624698,450.43937454232946L708.9392617135309,326.06321199564263Z" fill="#fe6432" stroke="#fe6432"></path><path d="M708.9392617135309,326.06321199564263L622.2316171624698,450.43937454232946L814.932471215725,494.59724709391594Z" fill="#fe4e2c" stroke="#fe4e2c"></path><path d="M708.9392617135309,326.06321199564263L814.932471215725,494.59724709391594L862.2381542203948,353.75639339210466Z" fill="#f94c2c" stroke="#f94c2c"></path><path d="M862.2381542203948,353.75639339210466L814.932471215725,494.59724709391594L892.396119851619,460.8089395961724Z" fill="#f53626" stroke="#f53626"></path><path d="M862.2381542203948,353.75639339210466L892.396119851619,460.8089395961724L1040.56814490119,385.84083516849205Z" fill="#ee3727" stroke="#ee3727"></path><path d="M1040.56814490119,385.84083516849205L892.396119851619,460.8089395961724L1045.303658421617,468.4843452856876Z" fill="#e62726" stroke="#e62726"></path><path d="M1040.56814490119,385.84083516849205L1045.303658421617,468.4843452856876L1195.6647832738236,490.3859315137379Z" fill="#d81e28" stroke="#d81e28"></path><path d="M1040.56814490119,385.84083516849205L1195.6647832738236,490.3859315137379L1190.8993459143676,302.4764270731248Z" fill="#d22e2e" stroke="#d22e2e"></path><path d="M1190.8993459143676,302.4764270731248L1195.6647832738236,490.3859315137379L1295.9097738470882,349.41092849941924Z" fill="#c63231" stroke="#c63231"></path><path d="M1295.9097738470882,349.41092849941924L1195.6647832738236,490.3859315137379L1348.8514540274628,465.58262911858037Z" fill="#bf212e" stroke="#bf212e"></path><path d="M1295.9097738470882,349.41092849941924L1348.8514540274628,465.58262911858037L1478.1341865705326,293.3786008344032Z" fill="#b23736" stroke="#b23736"></path><path d="M1478.1341865705326,293.3786008344032L1348.8514540274628,465.58262911858037L1472.7223645430058,513.9731527771801Z" fill="#aa2533" stroke="#aa2533"></path><path d="M-47.52486982382834,447.56427061278373L-127.69316106801853,669.034067359753L92.96868554549292,611.3984250859357Z" fill="#eb8174" stroke="#eb8174"></path><path d="M-47.52486982382834,447.56427061278373L92.96868554549292,611.3984250859357L54.58619762444869,432.85887645790353Z" fill="#fd8c66" stroke="#fd8c66"></path><path d="M54.58619762444869,432.85887645790353L92.96868554549292,611.3984250859357L208.68765952065587,472.66896984772757Z" fill="#fb8258" stroke="#fb8258"></path><path d="M208.68765952065587,472.66896984772757L92.96868554549292,611.3984250859357L227.58184966398403,592.6267746975645Z" fill="#ef7251" stroke="#ef7251"></path><path d="M208.68765952065587,472.66896984772757L227.58184966398403,592.6267746975645L325.82234773319215,602.9438270675018Z" fill="#ef6b48" stroke="#ef6b48"></path><path d="M208.68765952065587,472.66896984772757L325.82234773319215,602.9438270675018L368.47276125103235,459.0817489591427Z" fill="#f96d40" stroke="#f96d40"></path><path d="M368.47276125103235,459.0817489591427L325.82234773319215,602.9438270675018L446.5044061653316,576.9418348651379Z" fill="#f25f3a" stroke="#f25f3a"></path><path d="M368.47276125103235,459.0817489591427L446.5044061653316,576.9418348651379L505.29083169065416,493.7907343218103Z" fill="#fa5f35" stroke="#fa5f35"></path><path d="M505.29083169065416,493.7907343218103L446.5044061653316,576.9418348651379L631.8134290818125,663.1800987455063Z" fill="#ea4a35" stroke="#ea4a35"></path><path d="M505.29083169065416,493.7907343218103L631.8134290818125,663.1800987455063L622.2316171624698,450.43937454232946Z" fill="#f34930" stroke="#f34930"></path><path d="M622.2316171624698,450.43937454232946L631.8134290818125,663.1800987455063L750.4244355647825,571.4669232978486Z" fill="#ed362e" stroke="#ed362e"></path><path d="M622.2316171624698,450.43937454232946L750.4244355647825,571.4669232978486L814.932471215725,494.59724709391594Z" fill="#fa3628" stroke="#fa3628"></path><path d="M814.932471215725,494.59724709391594L750.4244355647825,571.4669232978486L860.9097687131725,642.9759512189776Z" fill="#e61f28" stroke="#e61f28"></path><path d="M814.932471215725,494.59724709391594L860.9097687131725,642.9759512189776L892.396119851619,460.8089395961724Z" fill="#eb1f24" stroke="#eb1f24"></path><path d="M892.396119851619,460.8089395961724L860.9097687131725,642.9759512189776L993.9342147833668,575.8012155117467Z" fill="#e11123" stroke="#e11123"></path><path d="M892.396119851619,460.8089395961724L993.9342147833668,575.8012155117467L1045.303658421617,468.4843452856876Z" fill="#e51822" stroke="#e51822"></path><path d="M1045.303658421617,468.4843452856876L993.9342147833668,575.8012155117467L1152.955655201804,657.2512560314499Z" fill="#ca0628" stroke="#ca0628"></path><path d="M1045.303658421617,468.4843452856876L1152.955655201804,657.2512560314499L1195.6647832738236,490.3859315137379Z" fill="#c80928" stroke="#c80928"></path><path d="M1195.6647832738236,490.3859315137379L1152.955655201804,657.2512560314499L1320.9479783568531,673.9540945948102Z" fill="#ab002e" stroke="#ab002e"></path><path d="M1195.6647832738236,490.3859315137379L1320.9479783568531,673.9540945948102L1348.8514540274628,465.58262911858037Z" fill="#b1082d" stroke="#b1082d"></path><path d="M1348.8514540274628,465.58262911858037L1320.9479783568531,673.9540945948102L1422.1301512233913,639.0949387522414Z" fill="#9c0032" stroke="#9c0032"></path><path d="M1348.8514540274628,465.58262911858037L1422.1301512233913,639.0949387522414L1472.7223645430058,513.9731527771801Z" fill="#a10830" stroke="#a10830"></path><path d="M1472.7223645430058,513.9731527771801L1422.1301512233913,639.0949387522414L1439.6372535987757,797.8479464701377Z" fill="#840037" stroke="#840037"></path><path d="M1472.7223645430058,513.9731527771801L1439.6372535987757,797.8479464701377L1460.427113454789,908.8958718720824Z" fill="#6d003c" stroke="#6d003c"></path><path d="M-127.69316106801853,669.034067359753L-48.44670529710129,852.2735594399273L-86.20753397233784,740.0215762667358Z" fill="#c38087" stroke="#c38087"></path><path d="M-127.69316106801853,669.034067359753L-86.20753397233784,740.0215762667358L92.96868554549292,611.3984250859357Z" fill="#d5807b" stroke="#d5807b"></path><path d="M92.96868554549292,611.3984250859357L-86.20753397233784,740.0215762667358L91.1704794690013,743.2482988084666Z" fill="#d07c70" stroke="#d07c70"></path><path d="M92.96868554549292,611.3984250859357L91.1704794690013,743.2482988084666L230.5310126626864,718.6401800555177Z" fill="#d1715f" stroke="#d1715f"></path><path d="M92.96868554549292,611.3984250859357L230.5310126626864,718.6401800555177L227.58184966398403,592.6267746975645Z" fill="#dc6d55" stroke="#dc6d55"></path><path d="M227.58184966398403,592.6267746975645L230.5310126626864,718.6401800555177L325.82234773319215,602.9438270675018Z" fill="#dd644b" stroke="#dd644b"></path><path d="M325.82234773319215,602.9438270675018L230.5310126626864,718.6401800555177L388.33797237835824,716.4261705824174Z" fill="#d45f47" stroke="#d45f47"></path><path d="M325.82234773319215,602.9438270675018L388.33797237835824,716.4261705824174L446.5044061653316,576.9418348651379Z" fill="#de573e" stroke="#de573e"></path><path d="M446.5044061653316,576.9418348651379L388.33797237835824,716.4261705824174L448.74892654130235,716.841967345681Z" fill="#d6533e" stroke="#d6533e"></path><path d="M446.5044061653316,576.9418348651379L448.74892654130235,716.841967345681L631.8134290818125,663.1800987455063Z" fill="#d94b3a" stroke="#d94b3a"></path><path d="M631.8134290818125,663.1800987455063L448.74892654130235,716.841967345681L582.8738939831965,809.103550137952Z" fill="#c8453c" stroke="#c8453c"></path><path d="M631.8134290818125,663.1800987455063L582.8738939831965,809.103550137952L764.0812437003478,769.3135764775798Z" fill="#c33338" stroke="#c33338"></path><path d="M631.8134290818125,663.1800987455063L764.0812437003478,769.3135764775798L750.4244355647825,571.4669232978486Z" fill="#d52a30" stroke="#d52a30"></path><path d="M750.4244355647825,571.4669232978486L764.0812437003478,769.3135764775798L860.9097687131725,642.9759512189776Z" fill="#d21e2d" stroke="#d21e2d"></path><path d="M860.9097687131725,642.9759512189776L764.0812437003478,769.3135764775798L907.0934940874577,811.9885609298944Z" fill="#bd172f" stroke="#bd172f"></path><path d="M860.9097687131725,642.9759512189776L907.0934940874577,811.9885609298944L993.9342147833668,575.8012155117467Z" fill="#c50d2a" stroke="#c50d2a"></path><path d="M993.9342147833668,575.8012155117467L907.0934940874577,811.9885609298944L1058.5424103075638,808.2116017770022Z" fill="#b0082e" stroke="#b0082e"></path><path d="M993.9342147833668,575.8012155117467L1058.5424103075638,808.2116017770022L1152.955655201804,657.2512560314499Z" fill="#b0022e" stroke="#b0022e"></path><path d="M1152.955655201804,657.2512560314499L1058.5424103075638,808.2116017770022L1162.8325333422981,778.9681454352103Z" fill="#990033" stroke="#990033"></path><path d="M1152.955655201804,657.2512560314499L1162.8325333422981,778.9681454352103L1298.5975989303552,718.8303269911557Z" fill="#950034" stroke="#950034"></path><path d="M1152.955655201804,657.2512560314499L1298.5975989303552,718.8303269911557L1320.9479783568531,673.9540945948102Z" fill="#960033" stroke="#960033"></path><path d="M1320.9479783568531,673.9540945948102L1298.5975989303552,718.8303269911557L1439.6372535987757,797.8479464701377Z" fill="#7e0038" stroke="#7e0038"></path><path d="M1320.9479783568531,673.9540945948102L1439.6372535987757,797.8479464701377L1422.1301512233913,639.0949387522414Z" fill="#7f0038" stroke="#7f0038"></path><path d="M-86.20753397233784,740.0215762667358L-48.44670529710129,852.2735594399273L91.1704794690013,743.2482988084666Z" fill="#be807c" stroke="#be807c"></path><path d="M91.1704794690013,743.2482988084666L-48.44670529710129,852.2735594399273L44.94703160133213,927.2036982350983Z" fill="#b07d78" stroke="#b07d78"></path><path d="M91.1704794690013,743.2482988084666L44.94703160133213,927.2036982350983L199.93674606084824,857.4362338730134Z" fill="#af746a" stroke="#af746a"></path><path d="M91.1704794690013,743.2482988084666L199.93674606084824,857.4362338730134L230.5310126626864,718.6401800555177Z" fill="#be6e5d" stroke="#be6e5d"></path><path d="M230.5310126626864,718.6401800555177L199.93674606084824,857.4362338730134L388.97007084451616,868.9157730201259Z" fill="#b56353" stroke="#b56353"></path><path d="M230.5310126626864,718.6401800555177L388.97007084451616,868.9157730201259L388.33797237835824,716.4261705824174Z" fill="#c05c4a" stroke="#c05c4a"></path><path d="M388.33797237835824,716.4261705824174L388.97007084451616,868.9157730201259L448.74892654130235,716.841967345681Z" fill="#c05544" stroke="#c05544"></path><path d="M448.74892654130235,716.841967345681L388.97007084451616,868.9157730201259L529.0369639289565,888.9415501290932Z" fill="#b35045" stroke="#b35045"></path><path d="M448.74892654130235,716.841967345681L529.0369639289565,888.9415501290932L582.8738939831965,809.103550137952Z" fill="#b74941" stroke="#b74941"></path><path d="M582.8738939831965,809.103550137952L529.0369639289565,888.9415501290932L630.2682021120563,864.4568765186705Z" fill="#ac4141" stroke="#ac4141"></path><path d="M582.8738939831965,809.103550137952L630.2682021120563,864.4568765186705L764.0812437003478,769.3135764775798Z" fill="#b4333b" stroke="#b4333b"></path><path d="M764.0812437003478,769.3135764775798L630.2682021120563,864.4568765186705L737.069833537098,873.3641327219084Z" fill="#af2a3a" stroke="#af2a3a"></path><path d="M764.0812437003478,769.3135764775798L737.069833537098,873.3641327219084L907.0934940874577,811.9885609298944Z" fill="#ae1d35" stroke="#ae1d35"></path><path d="M907.0934940874577,811.9885609298944L737.069833537098,873.3641327219084L916.1424128524959,847.2967452905141Z" fill="#a51634" stroke="#a51634"></path><path d="M907.0934940874577,811.9885609298944L916.1424128524959,847.2967452905141L1058.5424103075638,808.2116017770022Z" fill="#9f0a32" stroke="#9f0a32"></path><path d="M1058.5424103075638,808.2116017770022L916.1424128524959,847.2967452905141L1052.2498154151253,884.8528133612126Z" fill="#930635" stroke="#930635"></path><path d="M1058.5424103075638,808.2116017770022L1052.2498154151253,884.8528133612126L1156.3712846278213,880.0706321327016Z" fill="#850138" stroke="#850138"></path><path d="M1058.5424103075638,808.2116017770022L1156.3712846278213,880.0706321327016L1162.8325333422981,778.9681454352103Z" fill="#880037" stroke="#880037"></path><path d="M1162.8325333422981,778.9681454352103L1156.3712846278213,880.0706321327016L1298.5975989303552,718.8303269911557Z" fill="#840037" stroke="#840037"></path><path d="M1298.5975989303552,718.8303269911557L1156.3712846278213,880.0706321327016L1355.7607360254042,947.4182446696796Z" fill="#6f003c" stroke="#6f003c"></path><path d="M1298.5975989303552,718.8303269911557L1355.7607360254042,947.4182446696796L1439.6372535987757,797.8479464701377Z" fill="#68003d" stroke="#68003d"></path><path d="M1439.6372535987757,797.8479464701377L1355.7607360254042,947.4182446696796L1460.427113454789,908.8958718720824Z" fill="#520042" stroke="#520042"></path><path d="M44.94703160133213,927.2036982350983L1355.7607360254042,947.4182446696796L529.0369639289565,888.9415501290932Z" fill="#9c3641" stroke="#9c3641"></path><path d="M44.94703160133213,927.2036982350983L529.0369639289565,888.9415501290932L388.97007084451616,868.9157730201259Z" fill="#a35e52" stroke="#a35e52"></path><path d="M44.94703160133213,927.2036982350983L388.97007084451616,868.9157730201259L199.93674606084824,857.4362338730134Z" fill="#a56a5e" stroke="#a56a5e"></path><path d="M529.0369639289565,888.9415501290932L1355.7607360254042,947.4182446696796L737.069833537098,873.3641327219084Z" fill="#961337" stroke="#961337"></path><path d="M529.0369639289565,888.9415501290932L737.069833537098,873.3641327219084L630.2682021120563,864.4568765186705Z" fill="#a73840" stroke="#a73840"></path><path d="M737.069833537098,873.3641327219084L1355.7607360254042,947.4182446696796L1052.2498154151253,884.8528133612126Z" fill="#810339" stroke="#810339"></path><path d="M737.069833537098,873.3641327219084L1052.2498154151253,884.8528133612126L916.1424128524959,847.2967452905141Z" fill="#9c0f34" stroke="#9c0f34"></path><path d="M1052.2498154151253,884.8528133612126L1355.7607360254042,947.4182446696796L1156.3712846278213,880.0706321327016Z" fill="#6d003d" stroke="#6d003d"></path></g><filter id="noise"><feTurbulence type="fractalNoise" in="fillPaint" fill="#F00" baseFrequency="0.7" numOctaves="10" stitchTiles="stitch"></feTurbulence><feComponentTransfer><feFuncR type="linear" slope="2" intercept="-.5"></feFuncR><feFuncG type="linear" slope="2" intercept="-.5"></feFuncG><feFuncB type="linear" slope="2" intercept="-.5"></feFuncB></feComponentTransfer><feColorMatrix type="matrix" values="0.3333 0.3333 0.3333 0 0 
 0.3333 0.3333 0.3333 0 0 
 0.3333 0.3333 0.3333 0 0 
 0 0 0 1 0"></feColorMatrix></filter><rect opacity="0.20000000000000007" width="100%" height="100%" filter="url(#noise)"></rect></svg>